<svg id="Capa_1" enable-background="new 0 0 512 512" height="512" viewBox="0 0 512 512" width="512" xmlns="http://www.w3.org/2000/svg"><g><path d="m251.162 360.587c12.799-1.601 18.943-16.503 17.397-28.859-1.843-14.731-12.366-25.134-23.969-23.685-11.598 1.451-19.24 14.127-17.397 28.859 1.827 14.6 12.135 25.165 23.969 23.685zm-4.71-37.66c.076-.009.154-.014.234-.014 2.339 0 6.161 4.058 6.989 10.677.487 3.889-.217 11.609-4.375 12.114-2.31.28-6.368-3.817-7.224-10.663-.855-6.847 2.068-11.825 4.376-12.114zm-175.952-230.427c-4.142 0-7.5 3.358-7.5 7.5s3.358 7.5 7.5 7.5 7.5-3.358 7.5-7.5-3.358-7.5-7.5-7.5zm75 0c-4.142 0-7.5 3.358-7.5 7.5s3.358 7.5 7.5 7.5 7.5-3.358 7.5-7.5-3.358-7.5-7.5-7.5zm157.495 268.222c10.721 0 20.084-10.008 21.812-23.82 1.843-14.731-5.799-27.408-17.397-28.859-11.599-1.458-22.126 8.953-23.969 23.685-1.654 13.215 5.386 28.994 19.554 28.994zm-4.671-27.133c.856-6.845 4.918-10.941 7.223-10.663 2.309.289 5.231 5.268 4.375 12.114-.856 6.845-4.901 10.943-7.224 10.663-3.85-.465-4.868-8.167-4.374-12.114zm117.176-241.089c-4.142 0-7.5 3.358-7.5 7.5s3.358 7.5 7.5 7.5 7.5-3.358 7.5-7.5-3.358-7.5-7.5-7.5zm79-32.5h-112.833c-1.22-8.466-8.502-15-17.3-15h-24.669c-8.798 0-16.081 6.534-17.3 15h-25.95c-1.649-3.876-3.546-7.653-5.693-11.302-17.666-30.038-50.218-48.698-84.955-48.698h-54.73c-28.072.004-55.757 23.155-56.15 52.5v7.5h-77.42c-9.649 0-17.5 7.851-17.5 17.5v42c0 9.649 7.851 17.5 17.5 17.5h77.42v7.5c0 .192.007.385.022.577 2.247 29.116 26.901 51.923 56.128 51.923h54.73c30.418 0 59.162-14.31 77.7-38.038v96.79c-4.96-.289-10.04-.29-15 0v-49.946c0-4.142-3.358-7.5-7.5-7.5s-7.5 3.358-7.5 7.5v51.699c-60.019 10.666-105.737 63.223-105.737 126.258 0 70.71 57.527 128.237 128.237 128.237s128.237-57.527 128.237-128.237c0-63.036-45.718-115.592-105.737-126.258v-120.505h23.897c1.22 8.466 8.502 15 17.3 15h24.669c8.798 0 16.081-6.534 17.3-15h112.834c9.649 0 17.5-7.851 17.5-17.5v-42c0-9.649-7.851-17.5-17.5-17.5zm-477 62c-1.378 0-2.5-1.122-2.5-2.5v-42c0-1.378 1.122-2.5 2.5-2.5h204.668c4.142 0 7.5-3.358 7.5-7.5s-3.358-7.5-7.5-7.5h-82.109v-6.234c1.157-5.094 5.749-8.766 11.011-8.766h54.73c12.922 0 25.395 4.671 35.127 13.159 9.77 8.499 16.035 20.185 17.827 32.841h-42.854c-4.142 0-7.5 3.358-7.5 7.5s3.358 7.5 7.5 7.5h42.873c-.781 5.599-2.436 10.984-4.894 16zm225.429 15c-.653.629-1.319 1.249-2.008 1.848-9.726 8.481-22.199 13.152-35.121 13.152h-54.73c-5.121 0-9.606-3.477-10.91-8.357v-6.643zm34.896 3.698c-14.982 25.476-42.58 41.302-72.025 41.302h-54.73c-21.347 0-39.368-16.582-41.15-37.801v-7.199h15.24v7.5c.281 12.378 14.148 22.529 25.91 22.5h54.73c18.201.015 35.594-7.24 48.431-20.064 12.915-12.903 20.037-30.061 20.067-48.323 0-.038.006-.074.006-.112 0-.042-.006-.083-.006-.125-.036-19.776-8.604-38.553-23.518-51.528-12.459-10.865-28.432-16.848-44.98-16.848h-54.73c-11.697.004-25.674 9.757-26.011 22.5v7.5h-15.139v-7.199c1.782-21.219 19.803-37.801 41.15-37.801h54.73c29.444 0 57.042 15.826 72.026 41.304 7.507 12.756 11.474 27.347 11.474 42.196s-3.967 29.44-11.475 42.198zm111.412 243.065c0 62.439-50.798 113.237-113.237 113.237s-113.237-50.798-113.237-113.237c0-75.574 56.618-112.44 113.237-111.98s113.237 38.248 113.237 111.98zm-67.039-261.763h-20.756c1.883-7.656 2.858-15.546 2.858-23.5s-.975-15.844-2.858-23.5h20.756zm44.669 12.5c0 1.378-1.122 2.5-2.5 2.5h-24.669c-3.362-.016-2.597-5.33-2.498-7.5l-.002-67c0-1.378 1.122-2.5 2.5-2.5h24.669c1.378 0 2.5 1.122 2.5 2.5zm83.389-19.744c-7.558 4.739-16.27 7.244-25.196 7.244h-43.193v-47h43.193c16.83 0 32.521 9.115 40.948 23.504-3.847 6.594-9.237 12.166-15.752 16.252zm46.744 4.744c0 1.378-1.122 2.5-2.5 2.5h-28.85c6.521-5.578 11.84-12.449 15.603-20.237.997-2.062.996-4.466-.001-6.528-3.809-7.876-9.207-14.721-15.689-20.234h28.937c1.378 0 2.5 1.122 2.5 2.5zm-169.882 277.071c9.29 9.29 24.144 5.335 33.461-3.982 10.498-10.498 12.248-25.196 3.982-33.461-9.39-9.39-24.618-4.86-33.46 3.982-8.92 8.92-13.309 24.135-3.983 33.461zm14.59-22.854c2.697-2.697 9.182-7.049 12.247-3.983 1.645 1.646.896 7.37-3.982 12.248s-10.602 5.628-12.248 3.982c-2.81-2.807 1.266-9.53 3.983-12.247zm-35.155 12.36c-7.473-9.316-18.609-14.66-30.553-14.66s-23.08 5.344-30.553 14.66l-19.552 24.375c-9.668 12.053-8.72 29.38 2.206 40.306 11.791 11.791 30.977 11.791 42.768 0 1.371-1.371 3.193-2.125 5.131-2.125s3.761.754 5.131 2.125c5.896 5.896 13.64 8.843 21.384 8.843s15.488-2.948 21.384-8.843c10.926-10.926 11.874-28.253 2.206-40.306zm6.739 54.074c-5.942 5.942-15.612 5.942-21.555 0-4.339-4.339-10.039-6.508-15.738-6.508s-11.399 2.169-15.738 6.508c-5.942 5.942-15.612 5.942-21.555 0-5.506-5.506-5.984-14.24-1.111-20.314l19.552-24.375c4.611-5.749 11.482-9.046 18.852-9.046s14.241 3.297 18.852 9.046l19.552 24.375c4.874 6.075 4.396 14.808-1.111 20.314zm-92.393-78.39c-8.749-8.749-24.213-13.231-33.461-3.983-8.265 8.265-6.516 22.963 3.982 33.461 9.414 9.414 24.072 13.371 33.461 3.982 9.208-9.206 4.7-24.778-3.982-33.46zm-6.624 22.854c-1.645 1.646-7.369.897-12.248-3.982-4.878-4.878-5.627-10.603-3.982-12.248 3.012-3.013 10.112 1.848 12.248 3.983 2.766 2.766 6.925 9.303 3.982 12.247z"/></g></svg>